<?xml version="1.0" encoding="UTF-8"?>
<svg id="katman_1" xmlns="http://www.w3.org/2000/svg" version="1.1" xmlns:xlink="http://www.w3.org/1999/xlink" viewBox="0 0 559.15 159.15">
  <!-- Generator: Adobe Illustrator 29.6.1, SVG Export Plug-In . SVG Version: 2.1.1 Build 9)  -->
  <defs>
    <style>
      .st0 {
        fill: url(#Adsız_degrade_18);
      }

      .st1 {
        fill: url(#Adsız_degrade_8);
      }

      .st2 {
        fill: #4b7775;
      }

      .st3 {
        fill: url(#Adsız_degrade_81);
      }

      .st4 {
        fill: #0f3433;
      }
    </style>
    <linearGradient id="Adsız_degrade_18" data-name="Adsız degrade 18" x1="100.56" y1="135.8" x2="49.19" y2="117.11" gradientUnits="userSpaceOnUse">
      <stop offset="0" stop-color="#0f3433"/>
      <stop offset=".29" stop-color="#0e3332"/>
      <stop offset="1" stop-color="#000501"/>
    </linearGradient>
    <linearGradient id="Adsız_degrade_8" data-name="Adsız degrade 8" x1="339.7" y1="53.9" x2="310.59" y2="102.34" gradientUnits="userSpaceOnUse">
      <stop offset=".32" stop-color="#4b7775"/>
      <stop offset="1" stop-color="#000501"/>
    </linearGradient>
    <linearGradient id="Adsız_degrade_81" data-name="Adsız degrade 8" y1="-6748.8" x2="310.59" y2="-6700.35" gradientTransform="translate(0 -6604.47) scale(1 -1)" xlink:href="#Adsız_degrade_8"/>
  </defs>
  <g>
    <path class="st4" d="M149.11,117.19l-7.89-13.67c-1.13-1.96-3.22-3.16-5.47-3.16h-15.79c-2.26,0-4.35,1.2-5.47,3.16l-4.05,7.01c-1.13,1.95-3.22,3.16-5.47,3.16h-27.86c-4.87,0-7.91-5.27-5.47-9.48l19.57-33.89h.05l1.82-3.16s0,0,0,0l11.74-20.34c1.13-1.96,1.13-4.37,0-6.32l-11.74-20.34c-1.13-1.96-3.22-3.16-5.47-3.16h-23.48c-2.26,0-4.34,1.2-5.47,3.16l-13.54,23.45h-.04s-25.08,43.42-25.08,43.42l-1.82,3.16s0,0,0,0l-1.66,2.87-10.08,17.47c-1.13,1.96-1.13,4.37,0,6.32l11.74,20.34c1.13,1.96,3.22,3.16,5.47,3.16h112.11c2.26,0,4.34-1.2,5.47-3.16l7.89-13.67c.56-.98.85-2.07.85-3.16s-.28-2.18-.85-3.16Z"/>
    <path class="st0" d="M77.1,113.68c-4.86,0-7.9-5.26-5.48-9.48l-16.4,28.41s0,0,0,0l-2.63,4.56c-.99,1.71-2.71,2.85-4.64,3.11-.03.02-.05.04-.08.06h43.55l13.55-26.66h-27.86Z"/>
  </g>
  <g>
    <path class="st2" d="M345.92,57.63h-17.91l-21.77,37.7c-1.38,2.4-1.38,5.36,0,7.76l21.65,37.5h17.91l-23.89-41.38,24.01-41.58Z"/>
    <path class="st4" d="M250.93,141.95c-15.97,0-28.97-13-28.97-28.97v-27.74c0-15.97,13-28.97,28.97-28.97s28.97,13,28.97,28.97v21.63h-42.43v6.12c0,7.42,6.04,13.46,13.46,13.46,5.56,0,10.62-3.49,12.59-8.69l14.5,5.5c-4.24,11.18-15.13,18.69-27.09,18.69ZM237.47,91.36h26.92v-6.12c0-7.42-6.04-13.46-13.46-13.46s-13.46,6.04-13.46,13.46v6.12Z"/>
    <path class="st2" d="M419.96,141.95h0c-16,0-28.97-12.97-28.97-28.97v-55.35h15.51v55.35c0,7.43,6.03,13.46,13.46,13.46h0c7.43,0,13.46-6.03,13.46-13.46v-55.35h15.51v55.35c0,16-12.97,28.97-28.97,28.97Z"/>
    <path class="st2" d="M524.91,56.27c-8.4,0-15.93,3.59-21.22,9.3-5.29-5.71-12.83-9.3-21.22-9.3h0c-16,0-28.97,12.97-28.97,28.97v55.35h15.51v-55.35c0-7.43,6.03-13.46,13.46-13.46s13.46,6.03,13.46,13.46v55.32h15.53v-55.32c0-7.43,6.03-13.46,13.46-13.46h0c7.43,0,13.46,6.03,13.46,13.46v55.32h15.51v-55.32c0-16-12.97-28.97-28.97-28.97Z"/>
    <polygon class="st2" points="386.43 63.56 371.8 63.56 371.8 41.86 356.29 41.86 356.29 77.82 344.16 77.82 344.16 93.33 356.29 93.33 356.29 140.59 371.8 140.59 371.8 79.07 386.43 79.07 386.43 63.56"/>
    <path class="st4" d="M219.06,140.67h-20.17c-13.27,0-24.07-10.8-24.07-24.07V41.86h16.05v74.74c0,4.42,3.59,8.01,8.01,8.01h20.17v16.05Z"/>
    <path class="st1" d="M321.97,99.11l23.95-41.48h-17.91l-21.77,37.7c-.68,1.17-1.02,2.47-1.03,3.78h16.76Z"/>
    <path class="st3" d="M321.97,99.11l23.95,41.48h-17.91l-21.77-37.7c-.68-1.17-1.02-2.47-1.03-3.78h16.76Z"/>
    <path class="st4" d="M296.49,57.63h-17.91l24.01,41.58-23.89,41.38h17.91l21.65-37.5c1.38-2.4,1.38-5.36,0-7.76l-21.77-37.7Z"/>
  </g>
</svg>